<svg width="102.000000" height="100.000000" viewBox="0 0 102 100" fill="none" xmlns="http://www.w3.org/2000/svg" xmlns:xlink="http://www.w3.org/1999/xlink">
	<desc>
			Created with Pixso.
	</desc>
	<defs/>
	<path id="Path" d="M50.768 0.00939941C50.768 0.00939941 80.7787 -1.31482 96.6843 28.2587C88.2817 28.2587 48.2166 28.2587 48.2166 28.2587C48.2166 28.2587 39.0632 27.9634 31.2603 38.8531C29.0096 43.4141 26.6093 48.1227 29.3102 57.3915C25.4092 50.9188 8.60242 22.2266 8.60242 22.2266C8.60242 22.2266 20.4575 1.18604 50.768 0.00939941Z" fill="#E16B5A" fill-opacity="1.000000" fill-rule="nonzero"/>
	<path id="Path" d="M95.1223 75.0953C95.1223 75.0953 81.2837 101.238 47.2105 99.9523C51.4138 92.8187 71.4503 58.7992 71.4503 58.7992C71.4503 58.7992 76.2875 51.1735 70.5755 39.1031C67.6718 34.9109 58.8755 30.5172 49.338 28.1749C57.0081 28.1 96.5889 28.1797 96.5889 28.1797C96.5889 28.1797 109.241 48.7695 95.1223 75.0953Z" fill="#FFD464" fill-opacity="1.000000" fill-rule="nonzero"/>
	<path id="Path" d="M6.62762 75.2937C6.62762 75.2937 -9.54206 50.4688 8.63184 22.1781C12.8319 29.3148 32.8573 63.3406 32.8573 63.3406C32.8573 63.3406 37.1712 71.2609 50.6892 72.4453C55.8421 72.0765 61.2026 71.7633 68.04 64.8375C64.2701 71.3867 47.3274 99.9991 47.3274 99.9991C47.3274 99.9991 22.8172 100.448 6.62762 75.2937Z" fill="#74B340" fill-opacity="1.000000" fill-rule="nonzero"/>
	<ellipse id="Oval" cx="50.646301" cy="50.406250" rx="23.064327" ry="22.656250" fill="#FFFFFF" fill-opacity="1.000000"/>
	<ellipse id="Oval" cx="50.638351" cy="50.406250" rx="18.292398" ry="17.968750" fill="#2995CC" fill-opacity="1.000000"/>
	<path id="Path" d="M50.6431 32.4414C50.2788 32.4414 49.9186 32.4547 49.5607 32.475C59.1586 33.0258 66.7698 40.8438 66.7698 50.4094C66.7698 59.9766 59.1586 67.7953 49.5607 68.3461C49.9194 68.3656 50.2796 68.3796 50.6431 68.3796C60.7445 68.3796 68.9355 60.3336 68.9355 50.4094C68.9355 40.4867 60.7445 32.4414 50.6431 32.4414Z" fill="#268CBF" fill-opacity="1.000000" fill-rule="nonzero"/>
</svg>
